<?xml version="1.0" encoding="UTF-8"?>
<svg id="Layer_2" data-name="Layer 2" xmlns="http://www.w3.org/2000/svg" viewBox="0 0 331.89 42.17">
  <defs>
    <style>
      .cls-1 {
        fill: #6f6e6e;
      }

      .cls-2 {
        fill: #504f4f;
      }
    </style>
  </defs>
  <g id="Layer_1-2" data-name="Layer 1">
    <g>
      <path class="cls-2" d="M21.25,3.11L1.97,40.69c-.64,1.92-2.48.97-1.84-.3L20.33.57c.19-.38.57-.57.95-.57s.7.19.89.57l20.26,39.82c.63,1.27-1.21,2.22-1.84,1.02l-5.65-11.24L21.25,3.11Z"/>
      <path class="cls-2" d="M45.49,26.61v14.04c0,1.4-2.1,1.4-2.1.06V2.16c0-.64.44-1.08,1.08-1.08h16c10.73,0,16.19,6.03,16.19,13.21s-4.57,11.68-13.84,12.38l13.15,13.53c1.02,1.08-.32,2.48-1.33,1.46l-14.29-15.05h-14.86ZM45.49,24.77h15.05c9.84,0,14.1-4.7,13.97-10.48-.06-6.22-5.27-11.24-13.97-11.24h-15.05v21.72Z"/>
      <path class="cls-2" d="M110.66,1.08c1.52,0,1.52,1.91,0,1.91h-16.45l.06,37.6c0,.83-.63,1.21-1.14,1.21s-1.08-.38-1.08-1.21V2.98h-16.38c-1.52,0-1.52-1.91,0-1.91h34.99Z"/>
      <path class="cls-1" d="M113.04,39.75l5.59-.25h20c1.52,0,1.52,1.97,0,1.97h-26.86c-.51,0-1.02-.38-1.21-.89-.13-.51.06-1.08.51-1.4,6.73-4.95,13.59-9.91,20.26-14.86,4-2.92,6.1-6.86,5.4-11.81-.83-6.35-5.65-9.46-11.75-9.46s-10.99,3.05-11.88,9.46c-.06.51-.13,1.14-.13,1.71,0,1.08-1.91,1.02-1.91,0,0-.7.06-1.4.13-2.03,1.08-7.49,6.67-11.24,13.84-11.24s12.7,3.87,13.72,11.24c.89,5.52-1.46,10.1-6.03,13.46l-15.05,11.18-4.64,2.92Z"/>
      <path class="cls-2" d="M181.61,39.5h28.07c1.33,0,1.33,2.03,0,2.03h-28.45c-1.02,0-1.71-.76-1.71-1.71V2.79c0-.89.7-1.65,1.71-1.65h28.51c1.27,0,1.27,1.91-.06,1.91h-28.07v17.53h26.8c1.33,0,1.33,1.91,0,1.91h-26.8v17.02Z"/>
      <path class="cls-2" d="M212.93,32.52c1.52,5.27,8.7,7.24,13.46,7.68.95.13,2.03.19,2.98.19,6.29,0,16-2.16,16-10.03,0-14.61-33.53-1.46-33.53-18.61,0-6.29,6.16-9.4,11.5-10.54,1.71-.32,3.56-.51,5.33-.51,6.1,0,14.86,1.4,17.27,8,.64,1.52-1.33,1.97-1.78.7-2.16-5.97-10.03-6.79-15.43-6.79-.51,0-1.02.06-1.52.06-4.57.32-11.18,2.16-12.83,6.99-.32.64-.44,1.46-.44,2.16,0,14.54,33.53,1.84,33.53,18.48,0,9.34-10.42,11.88-18.1,11.88-6.48,0-16.32-1.78-18.35-9.14-.38-1.27,1.52-1.84,1.91-.51Z"/>
      <path class="cls-2" d="M252.89,1.91c0-1.59,2.29-1.59,2.29,0v38.55c0,1.46-2.29,1.46-2.29,0V1.91Z"/>
      <path class="cls-2" d="M278.4,42.17c-10.86-.13-20.26-9.14-19.94-21.15.32-9.72,6.99-18.8,16.83-20.39,6.29-.95,13.84.89,18.16,5.65,1.02,1.21-.51,2.54-1.52,1.46-3.87-4.32-10.67-5.91-16.32-5.02-8.83,1.4-14.8,9.65-15.11,18.35-.25,10.61,8.19,18.8,17.97,18.99,5.53.06,11.37-2.35,14.54-6.99v-10.61h-13.53c-1.21,0-1.21-1.91,0-1.91h14.29c.89,0,1.14.51,1.14,1.21v11.3c0,.51-.06,1.08-.44,1.46-3.75,4.95-9.97,7.68-16.07,7.62Z"/>
      <path class="cls-2" d="M329.73,2.03c0-1.59,2.16-1.59,2.16,0v38.23c0,1.52-1.4,1.52-2.22.51l-27.62-36.01v35.63c0,1.52-2.1,1.52-2.1,0V2.22c0-1.59,1.33-1.78,2.22-.64l27.56,36.01V2.03Z"/>
      <path class="cls-2" d="M157.44,1.14h-14.73c-.95,0-1.71.7-1.71,1.59v.32h16.45c22.1,0,22.1,36.52,0,36.52h-16.45v.32c0,.89.76,1.65,1.71,1.65h14.73c24.89,0,24.89-40.39,0-40.39Z"/>
    </g>
  </g>
</svg>